<?xml version="1.0" encoding="iso-8859-1"?>
<!-- Generator: Adobe Illustrator 19.0.0, SVG Export Plug-In . SVG Version: 6.00 Build 0)  -->
<svg version="1.1" id="Capa_1" xmlns="http://www.w3.org/2000/svg" xmlns:xlink="http://www.w3.org/1999/xlink" x="0px" y="0px"
	 viewBox="0 0 406.4 406.4" style="enable-background:new 0 0 406.4 406.4;" xml:space="preserve">
<path style="fill:#B7F3F9;" d="M69.477,335.2c-75.2-74.4-75.2-195.2-0.8-270.4s195.2-75.2,270.4-0.8s75.2,195.2,0.8,270.4
	c-60.8,61.6-155.2,74.4-230.4,31.2l-48.8,32.8L69.477,335.2z"/>
<path style="fill:#2AC6BE;" d="M275.077,332c-3.2,0-5.6,0-8.8-0.8c-25.6-8-72.8-32-108.8-104.8s-23.2-125.6-13.6-150.4
	c4-11.2,15.2-18.4,27.2-17.6c4.8,0,10.4,0.8,15.2,3.2c12,6.4,24,24.8,16,72.8l0,4.8l-18.4,8c0,0-17.6,15.2,3.2,66.4
	c20.8,40,40.8,43.2,46.4,43.2c0.8,0,1.6,0,2.4,0l17.6-8.8l4,2.4c42.4,24,48.8,44.8,46.4,58.4C301.477,321.6,289.477,332,275.077,332
	z"/>
<g>
	<path style="fill:#082B33;" d="M203.877,0c-109.6,0-199.2,89.6-199.2,199.2c0,52,20,101.6,56,138.4l-8,59.2c-0.8,4,2.4,8.8,6.4,9.6
		c2.4,0,4,0,5.6-1.6l44.8-29.6c96.8,51.2,217.6,14.4,268.8-82.4s16-217.6-80.8-269.6C268.677,8,236.677,0,203.877,0z M203.877,382.4
		c-31.2,0-62.4-8-90.4-24c-2.4-1.6-5.6-1.6-8,0l-34.4,22.4l6.4-45.6c0-2.4-0.8-4.8-2.4-6.4c-72-71.2-72-187.2,0-259.2
		s187.2-72,259.2,0s72,187.2,0,259.2C299.877,363.2,252.677,382.4,203.877,382.4z"/>
	<path style="fill:#082B33;" d="M256.677,240c-2.4-1.6-4.8-1.6-7.2,0l-16,8l0,0c-3.2,0-20.8-1.6-39.2-38.4c-16-38.4-7.2-53.6-5.6-56
		l16.8-7.2c2.4-0.8,4-3.2,4.8-5.6c10.4-56-4-77.6-19.2-85.6c-5.6-3.2-12-4-19.2-4c-15.2-0.8-28.8,8-34.4,22.4
		c-10.4,25.6-22.4,80.8,13.6,156.8s86.4,100.8,112.8,108.8c3.2,0.8,7.2,1.6,11.2,1.6c18.4-0.8,32.8-14.4,36-32
		C314.277,292,307.077,267.2,256.677,240z M295.877,305.6c-2.4,9.6-10.4,17.6-20.8,18.4c-2.4,0-4,0-6.4-0.8
		c-24-7.2-69.6-30.4-104-100.8s-22.4-120.8-12.8-144c3.2-8,11.2-12.8,20-12c4,0,8,0.8,11.2,2.4c13.6,8,17.6,30.4,12,64.8l-15.2,6.4
		c-0.8,0-1.6,0.8-1.6,0.8c-2.4,1.6-21.6,20,0.8,75.2c22.4,43.2,44.8,48,54.4,48c1.6,0,2.4,0,4,0c0.8,0,1.6-0.8,1.6-0.8l13.6-7.2
		C283.077,272.8,298.277,290.4,295.877,305.6z"/>
</g>
<g>
</g>
<g>
</g>
<g>
</g>
<g>
</g>
<g>
</g>
<g>
</g>
<g>
</g>
<g>
</g>
<g>
</g>
<g>
</g>
<g>
</g>
<g>
</g>
<g>
</g>
<g>
</g>
<g>
</g>
</svg>
